<svg xmlns="http://www.w3.org/2000/svg" width="43" height="43" viewBox="0 0 43 43">
  <g id="Group_17407" data-name="Group 17407" transform="translate(-4544 -12686)">
    <circle id="Ellipse_937" data-name="Ellipse 937" cx="21.5" cy="21.5" r="21.5" transform="translate(4544 12686)" fill="#fcb833"/>
    <g id="Group_1807" data-name="Group 1807" transform="translate(-5967 2593.332)">
      <g id="Ellipse_929" data-name="Ellipse 929" transform="translate(10519 10100.668)" fill="none" stroke="#fff" stroke-width="2.2">
        <circle cx="13.5" cy="13.5" r="13.5" stroke="none"/>
        <circle cx="13.5" cy="13.5" r="12.4" fill="none"/>
      </g>
      <g id="Group_1806" data-name="Group 1806" transform="translate(10528.073 10107.425)">
        <path id="Path_7068" data-name="Path 7068" d="M92.8,16.128s-.016-.032-.064-.111a.348.348,0,0,1-.048-.08,3.008,3.008,0,0,0-1.576-1.194,8.52,8.52,0,0,0-1.338-.4V11.383a2.378,2.378,0,0,1,1.067.414,1.663,1.663,0,0,1,.366.382,1.269,1.269,0,0,1,.127.255c.032.08.048.175.08.255a.787.787,0,0,0,1.513-.4,1.741,1.741,0,0,0-.08-.271,2.128,2.128,0,0,0-.111-.287,2.883,2.883,0,0,0-.621-.908,3.781,3.781,0,0,0-2.038-.987l-.3-.048V8.93a.8.8,0,0,0-.8-.78.782.782,0,0,0-.78.78v.876a3.943,3.943,0,0,0-2.118.94,2.953,2.953,0,0,0-.637.876,2.52,2.52,0,0,0-.223,1.131,2.645,2.645,0,0,0,.239,1.115,2.359,2.359,0,0,0,.685.844,5.465,5.465,0,0,0,2.054.876v3.105a2.238,2.238,0,0,1-.987-.541,1.8,1.8,0,0,1-.35-.43,1.769,1.769,0,0,1-.111-.255c-.032-.1-.064-.191-.1-.271a.771.771,0,0,0-.8-.541.8.8,0,0,0-.717.86,1.492,1.492,0,0,0,.064.255l.1.287a3.377,3.377,0,0,0,.589.971A3.812,3.812,0,0,0,87.8,20.2a1.809,1.809,0,0,0,.4.1v.908a.785.785,0,0,0,.78.8.8.8,0,0,0,.8-.8v-.828a4.171,4.171,0,0,0,2.2-.78A2.765,2.765,0,0,0,93.058,17.7,2.68,2.68,0,0,0,92.8,16.128Zm-4.6-2.166a3.565,3.565,0,0,1-.494-.175,2.179,2.179,0,0,1-.51-.255.9.9,0,0,1-.35-.382,1.312,1.312,0,0,1-.064-.557.947.947,0,0,1,.191-.494,1.989,1.989,0,0,1,1.226-.717Zm3.169,3.981v.016l-.016.016v.016l-.016.016a2.063,2.063,0,0,1-1.576.812V15.953a6.232,6.232,0,0,1,1.083.382,1.675,1.675,0,0,1,.43.318.986.986,0,0,1,.207.43,1.57,1.57,0,0,1,.032.271A1.526,1.526,0,0,1,91.37,17.943Z" transform="translate(-85.142 -8.15)" fill="#fff" stroke="#fff" stroke-width="0.3"/>
      </g>
    </g>
  </g>
</svg>
