<svg xmlns="http://www.w3.org/2000/svg" width="27.904" height="24.767" viewBox="0 0 27.904 24.767">
  <g id="Group_17406" data-name="Group 17406" transform="translate(-4485 -12695.001)">
    <g id="Group_1808" data-name="Group 1808" transform="translate(4440.762 12812.432)">
      <path id="Path_7222" data-name="Path 7222" d="M54.967-103.911a1.126,1.126,0,0,0,0-2.25H45.325a1.126,1.126,0,0,0,0,2.25h9.642Z" fill="#fff"/>
      <path id="Path_7223" data-name="Path 7223" d="M71.774-108.087a12.543,12.543,0,0,0-12.016-9.344,12.61,12.61,0,0,0-10.9,6.521,1.128,1.128,0,0,0,.974,1.683h0a1.146,1.146,0,0,0,1-.615,10.386,10.386,0,0,1,8.922-5.339,10.24,10.24,0,0,1,10.111,9.026,9.69,9.69,0,0,1-.641,4.831A10.246,10.246,0,0,1,56.2-95.529a10.042,10.042,0,0,1-5.34-4.7,1.14,1.14,0,0,0-1-.618,1.127,1.127,0,0,0-.981,1.671,12.38,12.38,0,0,0,4.453,4.738,12.492,12.492,0,0,0,13.977-.783A12.5,12.5,0,0,0,71.774-108.087Z" fill="#fff"/>
    </g>
  </g>
</svg>
