<svg xmlns="http://www.w3.org/2000/svg" width="23.423" height="24.767" viewBox="0 0 23.423 24.767">
  <g id="Group_17408" data-name="Group 17408" transform="translate(-4617 -12694.999)">
    <path id="Path_7221" data-name="Path 7221" d="M138.264-100.867h0a1.148,1.148,0,0,0-1,.614,10.385,10.385,0,0,1-8.921,5.339,10.26,10.26,0,0,1-9.5-6.587h7.634a1.126,1.126,0,0,0,0-2.25h-8.213c-.009-.064-.024-.125-.032-.189a9.624,9.624,0,0,1,.014-2.469h8.231a1.126,1.126,0,0,0,0-2.25h-7.642c.015-.037.023-.076.038-.112a10.244,10.244,0,0,1,13.028-5.795,10.044,10.044,0,0,1,5.341,4.7,1.141,1.141,0,0,0,1,.619,1.127,1.127,0,0,0,.981-1.672,12.369,12.369,0,0,0-4.452-4.738,12.491,12.491,0,0,0-13.977.784,12.5,12.5,0,0,0-4.465,12.868,12.542,12.542,0,0,0,12.016,9.344,12.608,12.608,0,0,0,10.9-6.521A1.128,1.128,0,0,0,138.264-100.867Z" transform="translate(4501.041 12812.43)" fill="#fff"/>
  </g>
</svg>
